<svg width="151" height="26" viewBox="0 0 151 26" fill="none" xmlns="http://www.w3.org/2000/svg">
<path fill-rule="evenodd" clip-rule="evenodd" d="M3.59999 1H20.4L24 7V23.8C24 24.4628 23.4628 25 22.8 25H1.2C0.537258 25 0 24.4628 0 23.8V7L3.59999 1ZM2.09914 7H21.9008L19.3808 2.8H4.61916L2.09914 7ZM6 10.3C6.49704 10.3 6.9 10.703 6.9 11.2C6.9 14.0166 9.18336 16.3 12 16.3C14.8166 16.3 17.1 14.0166 17.1 11.2C17.1 10.703 17.503 10.3 18 10.3C18.497 10.3 18.9 10.703 18.9 11.2C18.9 15.0108 15.8108 18.1 12 18.1C8.18922 18.1 5.1 15.0108 5.1 11.2C5.1 10.703 5.50296 10.3 6 10.3Z" fill="#77DAE6"/>
<path d="M34.918 20.052C35.782 21.888 37.402 22.806 39.778 22.806C41.308 22.806 42.55 22.392 43.504 21.546C44.476 20.7 44.962 19.53 44.962 18.036V8.388H42.208V9.558H42.172C41.434 8.676 40.462 8.244 39.256 8.244C37.924 8.244 36.826 8.73 35.98 9.72C35.134 10.692 34.72 11.826 34.72 13.104C34.72 14.472 35.152 15.624 36.016 16.542C36.88 17.46 37.996 17.928 39.364 17.928C40.552 17.928 41.47 17.496 42.136 16.65H42.172V18.108C42.172 19.602 41.218 20.358 39.76 20.358C38.59 20.358 37.744 19.818 37.204 18.738L34.918 20.052ZM42.244 13.104C42.244 14.526 41.218 15.48 39.904 15.48C38.554 15.48 37.564 14.526 37.564 13.104C37.564 11.718 38.59 10.746 39.904 10.746C41.254 10.746 42.244 11.718 42.244 13.104ZM53.6495 8.352C53.5055 8.298 53.3255 8.28 53.0915 8.28C51.8135 8.28 50.7875 8.982 50.3735 9.864H50.3555V8.388H47.5655V18H50.3735V13.932C50.3735 12.204 51.1655 11.07 52.9835 11.07C53.2175 11.07 53.4335 11.088 53.6495 11.124V8.352ZM54.4071 13.212C54.4071 14.652 54.9111 15.84 55.9191 16.794C56.9271 17.748 58.1691 18.216 59.6451 18.216C61.1031 18.216 62.3451 17.73 63.3711 16.776C64.3971 15.804 64.9011 14.598 64.9011 13.158C64.9011 11.736 64.3971 10.566 63.3891 9.612C62.3811 8.658 61.1391 8.172 59.6811 8.172C58.2231 8.172 56.9631 8.658 55.9371 9.63C54.9111 10.584 54.4071 11.79 54.4071 13.212ZM57.2871 13.176C57.2871 12.474 57.5211 11.88 57.9711 11.43C58.4211 10.962 58.9791 10.728 59.6451 10.728C60.3111 10.728 60.8871 10.962 61.3371 11.43C61.7871 11.88 62.0211 12.474 62.0211 13.176C62.0211 14.616 61.0131 15.642 59.6631 15.642C58.9971 15.642 58.4211 15.408 57.9711 14.958C57.5211 14.49 57.2871 13.896 57.2871 13.176ZM71.4915 18.216C73.6335 18.216 75.3795 17.19 76.1175 15.228L73.6335 14.202C73.2195 15.156 72.5175 15.624 71.5095 15.624C70.1415 15.624 69.2055 14.616 69.2055 13.176C69.2055 11.682 70.2135 10.746 71.5095 10.746C72.4635 10.746 73.1655 11.214 73.5795 12.168L76.0455 11.142C75.4155 9.252 73.6515 8.172 71.5095 8.172C70.0695 8.172 68.8455 8.658 67.8375 9.63C66.8295 10.602 66.3255 11.79 66.3255 13.212C66.3255 14.652 66.8115 15.84 67.7835 16.794C68.7555 17.748 69.9975 18.216 71.4915 18.216ZM87.2277 13.968C87.2457 13.752 87.2637 13.41 87.2637 12.96C87.2637 11.538 86.8137 10.368 85.9317 9.486C85.0497 8.604 83.8977 8.154 82.4757 8.154C81.0897 8.154 79.8837 8.64 78.8757 9.63C77.8857 10.62 77.3817 11.79 77.3817 13.176C77.3817 14.652 77.8857 15.858 78.8937 16.812C79.9197 17.748 81.1617 18.216 82.6557 18.216C84.6177 18.216 85.9857 17.496 86.7957 16.038L84.7617 14.706C84.3297 15.408 83.4657 15.858 82.6197 15.858C81.4137 15.858 80.4057 15.138 80.2437 13.968H87.2277ZM80.3157 12.114C80.3697 11.736 80.5857 11.358 80.9637 10.998C81.3417 10.62 81.8277 10.44 82.4037 10.44C83.6817 10.44 84.3837 11.268 84.4557 12.114H80.3157ZM95.3448 8.352C95.2008 8.298 95.0208 8.28 94.7868 8.28C93.5088 8.28 92.4828 8.982 92.0688 9.864H92.0508V8.388H89.2608V18H92.0688V13.932C92.0688 12.204 92.8608 11.07 94.6788 11.07C94.9128 11.07 95.1288 11.088 95.3448 11.124V8.352ZM99.8953 16.974L97.5373 22.734H100.543L106.375 8.388H103.477L101.335 13.878L98.9413 8.388H95.8453L99.8953 16.974ZM118.513 10.8C119.557 10.8 120.079 11.412 120.079 12.636V18H122.887V12.006C122.887 9.684 121.753 8.172 119.503 8.172C118.153 8.172 117.253 8.64 116.317 9.702C115.777 8.676 114.841 8.172 113.509 8.172C112.357 8.172 111.223 8.712 110.701 9.648H110.665V8.388H107.911V18H110.719V12.672C110.719 11.538 111.295 10.8 112.429 10.8C113.473 10.8 113.995 11.43 113.995 12.672V18H116.785V12.636C116.785 11.502 117.415 10.8 118.513 10.8ZM128.084 18.18C129.362 18.18 130.316 17.712 130.964 16.794L131 16.812V18H133.592V12.042C133.592 9.522 131.954 8.172 129.416 8.172C127.31 8.172 125.834 8.928 125.006 10.458L127.148 11.736C127.634 10.872 128.336 10.44 129.29 10.44C130.298 10.44 130.838 10.962 130.838 11.628C130.838 12.096 130.586 12.33 130.082 12.33H129.128C128.048 12.33 127.148 12.492 126.266 12.906C125.402 13.32 124.844 14.148 124.844 15.282V15.318C124.844 16.182 125.15 16.884 125.78 17.406C126.41 17.928 127.184 18.18 128.084 18.18ZM128.894 16.128C128.174 16.128 127.67 15.804 127.67 15.156C127.67 14.436 128.318 14.058 129.128 14.058H130.82V14.274C130.82 15.336 130.1 16.128 128.894 16.128ZM142.173 8.352C142.029 8.298 141.849 8.28 141.615 8.28C140.337 8.28 139.311 8.982 138.897 9.864H138.879V8.388H136.089V18H138.897V13.932C138.897 12.204 139.689 11.07 141.507 11.07C141.741 11.07 141.957 11.088 142.173 11.124V8.352ZM149.675 15.624C149.477 15.678 149.261 15.696 149.027 15.696C147.929 15.696 147.353 15.264 147.353 14.166V10.818H149.729V8.388H147.353V5.382H144.581V8.388H142.817V10.818H144.545V14.508C144.545 16.758 145.859 18.126 148.361 18.126C148.829 18.126 149.261 18.072 149.675 17.946V15.624Z" fill="#1A162E"/>
</svg>
